<svg xmlns="http://www.w3.org/2000/svg" viewBox="0 0 48 48"><defs><style>.cls-1{fill:#ffb32b;}.cls-2{fill:#273941;}.cls-3{fill:#141e21;}.cls-4{fill:#f6fafd;}.cls-5{fill:#ffce52;}.cls-6{fill:#ffe369;}.cls-7{fill:#5987dd;}.cls-8{fill:#95b4ff;}.cls-9{fill:#f29410;}.cls-10{fill:#ededed;}</style></defs><title>17-face</title><g id="_17-face" data-name="17-face"><circle class="cls-1" cx="24" cy="24" r="23"/><ellipse class="cls-2" cx="28" cy="25" rx="3" ry="4"/><ellipse class="cls-2" cx="10" cy="25" rx="3" ry="4"/><ellipse class="cls-3" cx="28" cy="25" rx="2" ry="3"/><ellipse class="cls-3" cx="10" cy="25" rx="2" ry="3"/><circle class="cls-4" cx="29" cy="24" r="1"/><circle class="cls-4" cx="11" cy="24" r="1"/><path class="cls-2" d="M23,38H21c0-.408-.779-1-2-1s-2,.592-2,1H15c0-1.683,1.757-3,4-3S23,36.317,23,38Z"/><path class="cls-5" d="M24,1A23,23,0,1,0,47,24,23,23,0,0,0,24,1ZM22,46A19,19,0,1,1,41,27,19,19,0,0,1,22,46Z"/><path class="cls-6" d="M47,24A23,23,0,0,0,6.307,9.307,23,23,0,0,1,38.693,41.693,22.95,22.95,0,0,0,47,24Z"/><ellipse class="cls-4" cx="43" cy="26" rx="0.825" ry="1.148" transform="translate(-5.786 38.038) rotate(-45.02)"/><ellipse class="cls-4" cx="43.746" cy="19.5" rx="0.413" ry="0.574" transform="translate(-0.97 36.66) rotate(-45.02)"/><ellipse class="cls-4" cx="43" cy="22" rx="1.65" ry="2.297" transform="translate(-2.957 36.865) rotate(-45.02)"/><path class="cls-7" d="M47,8c0-3.866-4.029-7-9-7s-9,3.134-9,7c0,3.635,3.442,6.656,8,7h0v4l6.423-5.423A6.619,6.619,0,0,0,47,8Z"/><path class="cls-8" d="M47,8c0-3.866-4.029-7-9-7a9.549,9.549,0,0,0-7.989,3.785A10.523,10.523,0,0,1,36,3c4.971,0,9,3.134,9,7a5.743,5.743,0,0,1-1,3.194A6.418,6.418,0,0,0,47,8Z"/><path class="cls-9" d="M37,19V15c-4.558-.344-8-3.365-8-7a5.766,5.766,0,0,1,1.011-3.215A6.433,6.433,0,0,0,27,10c0,3.635,3.442,6.656,8,7v4l6.423-5.423A7.861,7.861,0,0,0,44,13.194c-.189.132-.378.264-.58.383Z"/><rect class="cls-10" x="33" y="7" width="2" height="2"/><rect class="cls-10" x="37" y="7" width="2" height="2"/></g></svg>